<svg xmlns="http://www.w3.org/2000/svg" version="1.0" width="512px" height="512px" viewBox="0 0 512 512" preserveAspectRatio="xMidYMid meet">
 <g fill="currentColor">
  <path d="M84.6 456.7 c-2.2 -1.2 -5.3 -3.9 -7 -6 l-3.1 -3.9 -0.3 -80.7 -0.2 -80.8 90.2 -74.4 c49.7 -40.9 91 -74.4 91.8 -74.4 0.8 0 42.1 33.5 91.8 74.4 l90.2 74.4 -0.2 80.8 -0.3 80.7 -3.1 3.9 c-1.7 2.1 -4.8 4.8 -7 6 l-3.9 2.3 -63.2 0 -63.3 0 0 -61 0 -61 -41 0 -41 0 0 61 0 61 -63.2 0 -63.3 0 -3.9 -2.3z"/>
  <path d="M480.1 291.2 c-1.3 -0.2 -50.5 -40.5 -113.2 -92.9 l-110.9 -92.5 -111 92.6 c-109.5 91.4 -111 92.6 -115.3 92.6 -4.9 0 -5.7 -0.7 -18.9 -16.5 -8.8 -10.6 -9.8 -12.3 -9.8 -16.7 0 -2.5 0.8 -4.2 3.3 -6.5 1.7 -1.7 54.3 -45.7 116.7 -97.7 72.9 -60.8 115.5 -95.6 119 -97.4 4.9 -2.4 6.6 -2.7 16 -2.7 9.4 0 11.1 0.3 16 2.7 3.3 1.7 21.3 16 45.5 36.3 l40 33.4 0.5 -32.7 c0.5 -34 0.8 -35.9 5 -38.2 1.2 -0.6 14.6 -1 35.8 -1 l33.9 0 2.7 2.6 2.6 2.7 0 66.7 0 66.8 32.8 27.2 c40.6 33.8 40.2 33.5 40.2 37.8 0 1.8 -0.5 4.3 -1.2 5.5 -1.3 2.5 -19.7 24.6 -21.9 26.3 -1.8 1.4 -4.8 2.1 -7.8 1.6z"/>
 </g>
</svg>