<?xml version="1.0" encoding="UTF-8"?>
<svg version="1.1" xmlns="http://www.w3.org/2000/svg" width="512" height="512">
<path d="M0 0 C22.03852652 18.81159856 36.46579334 41.06373377 44.3515625 68.91015625 C44.69316406 70.08835937 45.03476562 71.2665625 45.38671875 72.48046875 C52.92056498 104.36791093 46.53869956 140.38566089 29.7109375 168.21484375 C19.22380228 184.89578124 5.20171214 199.62660904 -11.6484375 209.91015625 C-12.7209375 210.59335937 -13.7934375 211.2765625 -14.8984375 211.98046875 C-42.75922794 228.94201478 -78.25061189 233.92648545 -110.03027344 226.74707031 C-117.81941729 224.77736357 -125.2980262 222.14033195 -132.6484375 218.91015625 C-133.30263672 218.62688477 -133.95683594 218.34361328 -134.63085938 218.05175781 C-164.72593234 204.76588414 -188.43262339 179.18859339 -200.51953125 148.71386719 C-202.47890077 143.51521742 -204.1350825 138.25415274 -205.6484375 132.91015625 C-205.99003906 131.73195313 -206.33164063 130.55375 -206.68359375 129.33984375 C-214.21743998 97.45240157 -207.83557456 61.43465161 -191.0078125 33.60546875 C-172.71931393 4.51560818 -145.47270495 -14.79440926 -112.6484375 -24.08984375 C-111.47023438 -24.43144531 -110.29203125 -24.77304688 -109.078125 -25.125 C-71.91216204 -33.90596927 -29.43835184 -24.14652242 0 0 Z " fill="#000000" transform="translate(336.6484375,155.08984375)"/>
<path d="M0 0 C4.63532408 3.02038066 8.54746674 6.92832007 12.47900391 10.79150391 C14.07956616 12.35679206 15.70487666 13.89235949 17.3359375 15.42578125 C25.03864827 22.7664939 32.08112287 30.23568672 32.38671875 41.4140625 C32.28507287 49.10865554 30.13549281 55.46403576 24.94921875 61.2265625 C18.60140171 66.93959784 11.18604688 69.11455805 2.73046875 68.72265625 C-6.57560647 67.4225428 -12.42096578 61.71797764 -18.92578125 55.3515625 C-20.04152324 54.28630809 -21.15741606 53.22121164 -22.2734375 52.15625 C-30.91179101 43.81702866 -37.90560267 36.84187866 -38.30078125 24.2265625 C-38.22477915 16.70235475 -36.3134899 11.14965866 -31.28125 5.5078125 C-22.95001383 -2.16519959 -10.64579769 -4.77610211 0 0 Z " fill="#000000" transform="translate(412.92578125,376.6484375)"/>
<path d="M0 0 C6.44892479 3.70868201 10.17891918 8.65126794 12.62890625 15.640625 C14.39045823 22.78064338 14.08799087 29.49146864 10.7265625 36.0859375 C7.78183586 40.65506497 4.07912635 44.44394971 0.2890625 48.31640625 C-0.77619191 49.43214824 -1.84128836 50.54804106 -2.90625 51.6640625 C-11.24547134 60.30241601 -18.22062134 67.29622767 -30.8359375 67.69140625 C-38.36014525 67.61540415 -43.91284134 65.7041149 -49.5546875 60.671875 C-55.86423197 53.82107058 -57.2754696 47.61715401 -56.97265625 38.44921875 C-56.16994774 28.84067802 -50.78835602 23.54429608 -44.27099609 16.91162109 C-42.70570794 15.31105884 -41.17014051 13.68574834 -39.63671875 12.0546875 C-28.47300436 0.34044842 -16.19323618 -7.3769187 0 0 Z " fill="#000000" transform="translate(431.7109375,69.68359375)"/>
<path d="M0 0 C4.56912747 2.94472664 8.35801221 6.64743615 12.23046875 10.4375 C13.34621074 11.50275441 14.46210356 12.56785086 15.578125 13.6328125 C24.21647851 21.97203384 31.21029017 28.94718384 31.60546875 41.5625 C31.52946665 49.08670775 29.6181774 54.63940384 24.5859375 60.28125 C17.73513308 66.59079447 11.53121651 68.0020321 2.36328125 67.69921875 C-7.25374948 66.89580097 -12.54340703 61.5084727 -19.17871094 54.984375 C-20.75833643 53.44838557 -22.37130648 51.95674416 -23.99609375 50.46875 C-31.93089154 43.07739813 -38.84988695 35.20197348 -39.39453125 23.8125 C-38.86013122 15.57086396 -35.99818363 8.48078714 -29.80859375 2.91015625 C-20.9564149 -3.48308403 -9.85714762 -5.02452834 0 0 Z " fill="#000000" transform="translate(105.76953125,69.5625)"/>
<path d="M0 0 C5.28642943 3.80201537 9.73876925 9.0658068 11.15625 15.55078125 C11.9987417 24.68947597 11.82060496 32.0571249 5.9296875 39.28125 C3.60645028 41.92017034 1.18013369 44.44814756 -1.28369141 46.95556641 C-2.84897956 48.55612866 -4.38454699 50.18143916 -5.91796875 51.8125 C-13.53165068 59.80291639 -20.95785441 66.5070809 -32.46875 66.86328125 C-39.88056417 66.75412346 -46.19190528 64.41054738 -51.71875 59.42578125 C-56.67747217 53.91608995 -58.99178883 47.53158233 -59.46875 40.17578125 C-58.79447318 28.38415979 -51.11481567 19.9143798 -42.96875 12.11328125 C-42.10894531 11.25541016 -41.24914062 10.39753906 -40.36328125 9.51367188 C-28.93257868 -1.68286608 -15.5797083 -8.97856566 0 0 Z " fill="#000000" transform="translate(125.84375,378.44921875)"/>
<path d="M0 0 C7.37409804 4.31063859 11.12186956 9.75449303 13.5 17.9375 C13.89075235 20.81190226 13.92212429 23.63337016 13.8984375 26.53125 C13.90130768 27.32221069 13.90417786 28.11317139 13.90713501 28.92810059 C13.90916264 30.5886304 13.90372455 32.24918481 13.89111328 33.90966797 C13.87504007 36.43121456 13.89100564 38.95115868 13.91015625 41.47265625 C13.90817359 43.09635765 13.90432943 44.72005807 13.8984375 46.34375 C13.90754654 47.45816467 13.90754654 47.45816467 13.9168396 48.59509277 C13.80887689 56.7505889 11.12915617 63.22261157 5.49609375 69.171875 C-0.89852506 74.82817188 -7.69000344 75.65364067 -16.05859375 75.3828125 C-23.70383807 74.39353003 -29.32059832 70.91129841 -34.24609375 65.07421875 C-37.84566109 58.94037658 -38.96128157 53.35647365 -38.93359375 46.37890625 C-38.9388356 45.59031723 -38.94407745 44.80172821 -38.94947815 43.98924255 C-38.95585856 42.33292815 -38.95461341 40.6765682 -38.94604492 39.02026367 C-38.93753194 36.50942012 -38.96635395 34.00085421 -38.99804688 31.49023438 C-39.04250022 21.27320534 -38.04638493 14.36138284 -32.375 5.6875 C-23.46390683 -2.83615433 -11.42808858 -5.18050401 0 0 Z " fill="#000000" transform="translate(268.5,437.0625)"/>
<path d="M0 0 C1.18644104 -0.00430527 1.18644104 -0.00430527 2.39685059 -0.00869751 C4.0573804 -0.01072514 5.71793481 -0.00528705 7.37841797 0.00732422 C9.89996456 0.02339743 12.41990868 0.00743186 14.94140625 -0.01171875 C16.56510765 -0.00973609 18.18880807 -0.00589193 19.8125 0 C20.92691467 -0.00910904 20.92691467 -0.00910904 22.06384277 -0.0184021 C30.2193389 0.08956061 36.69136157 2.76928133 42.640625 8.40234375 C48.29692188 14.79696256 49.12239067 21.58844094 48.8515625 29.95703125 C47.86228003 37.60227557 44.38004841 43.21903582 38.54296875 48.14453125 C32.40912658 51.74409859 26.82522365 52.85971907 19.84765625 52.83203125 C18.66477272 52.83989403 18.66477272 52.83989403 17.45799255 52.84791565 C15.80167815 52.85429606 14.1453182 52.85305091 12.48901367 52.84448242 C9.97817012 52.83596944 7.46960421 52.86479145 4.95898438 52.89648438 C-5.25804466 52.94093772 -12.16986716 51.94482243 -20.84375 46.2734375 C-26.50516948 40.35468077 -28.89708999 34.60970271 -29.21875 26.3984375 C-28.88413082 18.07817676 -26.39585963 11.69689011 -20.28125 5.9609375 C-14.40967401 1.00633307 -7.38548637 -0.06036773 0 0 Z " fill="#000000" transform="translate(463.59375,229.6015625)"/>
<path d="M0 0 C0.78858902 -0.00524185 1.57717804 -0.0104837 2.3896637 -0.0158844 C4.0459781 -0.02226481 5.70233805 -0.02101966 7.35864258 -0.01245117 C9.86948613 -0.00393819 12.37805204 -0.0327602 14.88867188 -0.06445312 C25.10570091 -0.10890647 32.01752341 0.88720882 40.69140625 6.55859375 C46.35282573 12.47735048 48.74474624 18.22232854 49.06640625 26.43359375 C48.73178707 34.75385449 46.24351588 41.13514114 40.12890625 46.87109375 C34.25733026 51.82569818 27.23314262 52.89239898 19.84765625 52.83203125 C18.66121521 52.83633652 18.66121521 52.83633652 17.45080566 52.84072876 C15.79027585 52.84275639 14.12972144 52.8373183 12.46923828 52.82470703 C9.94769169 52.80863382 7.42774757 52.82459939 4.90625 52.84375 C3.2825486 52.84176734 1.65884818 52.83792318 0.03515625 52.83203125 C-1.07925842 52.84114029 -1.07925842 52.84114029 -2.21618652 52.85043335 C-10.37168265 52.74247064 -16.84370532 50.06274992 -22.79296875 44.4296875 C-28.44926563 38.03506869 -29.27473442 31.24359031 -29.00390625 22.875 C-28.01462378 15.22975568 -24.53239216 9.61299543 -18.6953125 4.6875 C-12.56147033 1.08793266 -6.9775674 -0.02768782 0 0 Z " fill="#000000" transform="translate(28.55859375,229.56640625)"/>
<path d="M0 0 C6.02308957 4.39252941 9.03129831 9.38769011 11.12109375 16.546875 C11.52083051 19.40847659 11.56614177 22.21889327 11.5546875 25.10546875 C11.55992935 25.89405777 11.5651712 26.68264679 11.5705719 27.49513245 C11.57695231 29.15144685 11.57570716 30.8078068 11.56713867 32.46411133 C11.55862569 34.97495488 11.5874477 37.48352079 11.61914062 39.99414062 C11.66359397 50.21116966 10.66747868 57.12299216 4.99609375 65.796875 C-0.92266298 71.45829448 -6.66764104 73.85021499 -14.87890625 74.171875 C-23.19916699 73.83725582 -29.58045364 71.34898463 -35.31640625 65.234375 C-40.27101068 59.36279901 -41.33771148 52.33861137 -41.27734375 44.953125 C-41.28021393 44.16216431 -41.28308411 43.37120361 -41.28604126 42.55627441 C-41.28806889 40.8957446 -41.2826308 39.23519019 -41.27001953 37.57470703 C-41.25394632 35.05316044 -41.26991189 32.53321632 -41.2890625 30.01171875 C-41.28707984 28.38801735 -41.28323568 26.76431693 -41.27734375 25.140625 C-41.28341644 24.39768188 -41.28948914 23.65473877 -41.29574585 22.88928223 C-41.18778314 14.7337861 -38.50806242 8.26176343 -32.875 2.3125 C-23.81497374 -5.70145669 -10.26734544 -6.00192935 0 0 Z " fill="#000000" transform="translate(270.87890625,3.453125)"/>
</svg>
