<?xml version="1.0" encoding="UTF-8"?>
<svg version="1.1" xmlns="http://www.w3.org/2000/svg" width="512" height="512">
<path d="M0 0 C4.43703067 4.21517914 6.87111782 7.83009651 7.53344727 14.01513672 C7.46643047 18.74348939 5.77238037 23.1068197 4.3125 27.5625 C-13.09394641 83.97892377 -6.51199477 142.9219757 20.71337891 195.1171875 C27.61747251 207.70645028 35.97787495 219.62654067 45.5 230.375 C46.20125 231.18453125 46.9025 231.9940625 47.625 232.828125 C83.26100928 273.30044982 132.0147292 298.03656611 185.5 304.375 C187.07007813 304.57222656 187.07007813 304.57222656 188.671875 304.7734375 C216.27167491 307.65816235 244.91874878 304.05463661 271.36328125 295.90625 C272.12761475 295.67083496 272.89194824 295.43541992 273.67944336 295.19287109 C275.08308578 294.74991132 276.48179546 294.29079086 277.87329102 293.81103516 C282.90639043 292.18011177 286.40577068 292.36576589 291.5 293.375 C296.28254033 295.8582421 299.22209954 298.46875286 301.5 303.375 C302.57093753 312.14915774 300.71014885 319.00432057 297.125 326.9375 C296.44606689 328.49331787 296.44606689 328.49331787 295.75341797 330.08056641 C283.80078945 357.05367858 267.96705303 381.10151757 247.5 402.375 C246.90026367 403.00196777 246.30052734 403.62893555 245.68261719 404.27490234 C236.84281682 413.4683837 227.7862633 421.83545334 217.5 429.375 C216.64607666 430.01211914 216.64607666 430.01211914 215.77490234 430.66210938 C163.26505855 469.80392696 96.83775428 485.91052581 32.125 476.6875 C-28.56464805 467.37508178 -86.50527957 436.25469439 -124.5 387.375 C-125.28761719 386.39273437 -126.07523438 385.41046875 -126.88671875 384.3984375 C-166.6169259 334.46670058 -185.11588052 268.58694629 -178.15234375 205.2109375 C-170.44129373 141.27660041 -139.72513185 80.65998869 -89.10449219 39.85009766 C-86.82436764 38.07015854 -84.51743442 36.33116335 -82.18701172 34.61767578 C-80.52898451 33.39635039 -78.89123502 32.15122084 -77.25390625 30.90234375 C-62.29843585 19.6774089 -45.59613821 10.85814329 -28.5 3.375 C-26.75783203 2.58416016 -26.75783203 2.58416016 -24.98046875 1.77734375 C-16.70879012 -1.74523351 -8.49249735 -3.9429452 0 0 Z " fill="#000000" transform="translate(194.5,17.625)"/>
</svg>
