<?xml version="1.0" encoding="UTF-8"?>
<svg width="100%" height="100%" viewBox="0 0 24 24" version="1.1" xmlns="http://www.w3.org/2000/svg" xmlns:xlink="http://www.w3.org/1999/xlink" xml:space="preserve" xmlns:serif="http://www.serif.com/" style="fill-rule:evenodd;clip-rule:evenodd;stroke-linejoin:round;stroke-miterlimit:2;"><g id="Icon"><path d="M8.25,6c-0,0.414 -0.336,0.75 -0.75,0.75c-0.414,-0 -0.75,-0.336 -0.75,-0.75l0,-2c0,-0.967 0.784,-1.75 1.75,-1.75l7,0c0.966,-0 1.75,0.783 1.75,1.75l0,2c-0,0.414 -0.336,0.75 -0.75,0.75c-0.414,-0 -0.75,-0.336 -0.75,-0.75l-0,-2c-0,-0.138 -0.112,-0.25 -0.25,-0.25l-7,0c-0.138,-0 -0.25,0.112 -0.25,0.25l-0,2Z"></path><path d="M14,12.5c-0,-0.276 -0.224,-0.5 -0.5,-0.5c-0.769,0 -2.231,0 -3,0c-0.276,-0 -0.5,0.224 -0.5,0.5c-0,0.665 -0,1.835 -0,2.5c0,0.276 0.224,0.5 0.5,0.5c0.769,0 2.231,0 3,0c0.276,0 0.5,-0.224 0.5,-0.5c-0,-0.665 -0,-1.835 -0,-2.5Z"></path><path d="M14.75,11.5l-0,3.5c-0,0.414 -0.336,0.75 -0.75,0.75l-4,0c-0.414,0 -0.75,-0.336 -0.75,-0.75l-0,-3.5c0,-0.414 0.336,-0.75 0.75,-0.75l4,0c0.414,0 0.75,0.336 0.75,0.75Zm-1.5,0.75l-2.5,-0l0,2l2.5,0l0,-2Z" style="fill:none;"></path><path d="M15,14.554l6.667,-1.667c0.205,-0.051 0.4,-0.125 0.583,-0.218l0,6.331c0,1.519 -1.231,2.75 -2.75,2.75l-15,0c-1.519,-0 -2.75,-1.231 -2.75,-2.75l-0,-6.331c0.183,0.093 0.378,0.167 0.583,0.218l6.667,1.667l0,0.446c0,0.828 0.672,1.5 1.5,1.5l3,0c0.828,0 1.5,-0.672 1.5,-1.5l-0,-0.446Z"></path><path d="M9,13.523l-6.424,-1.606c-0.779,-0.195 -1.326,-0.895 -1.326,-1.698l-0,-3.219c-0,-0.464 0.184,-0.909 0.513,-1.237c0.328,-0.329 0.773,-0.513 1.237,-0.513l18,0c0.464,-0 0.909,0.184 1.237,0.513c0.329,0.328 0.513,0.773 0.513,1.237l-0,3.219c0,0.803 -0.547,1.503 -1.326,1.698l-6.424,1.606l-0,-1.023c-0,-0.828 -0.672,-1.5 -1.5,-1.5l-3,0c-0.828,-0 -1.5,0.672 -1.5,1.5l0,1.023Z"></path></g></svg>